<svg width="17" height="5" viewBox="0 0 17 5" fill="none" xmlns="http://www.w3.org/2000/svg">
<path d="M2.71422 4.42868C3.77932 4.42868 4.64279 3.56515 4.64279 2.5001C4.64279 1.43506 3.77932 0.571533 2.71422 0.571533C1.64911 0.571533 0.785645 1.43506 0.785645 2.5001C0.785645 3.56515 1.64911 4.42868 2.71422 4.42868Z" fill="white"/>
<path d="M8.49993 4.42868C9.56503 4.42868 10.4285 3.56515 10.4285 2.5001C10.4285 1.43506 9.56503 0.571533 8.49993 0.571533C7.43483 0.571533 6.57136 1.43506 6.57136 2.5001C6.57136 3.56515 7.43483 4.42868 8.49993 4.42868Z" fill="white"/>
<path d="M16.2142 2.5001C16.2142 3.56515 15.3507 4.42868 14.2856 4.42868C13.2205 4.42868 12.3571 3.56515 12.3571 2.5001C12.3571 1.43506 13.2205 0.571533 14.2856 0.571533C15.3507 0.571533 16.2142 1.43506 16.2142 2.5001Z" fill="white"/>
</svg>
