<svg width="27" height="27" viewBox="0 0 27 27" fill="none" xmlns="http://www.w3.org/2000/svg">
<path d="M7.71422 15.4287C8.77932 15.4287 9.64279 14.5652 9.64279 13.5001C9.64279 12.4351 8.77932 11.5715 7.71422 11.5715C6.64911 11.5715 5.78564 12.4351 5.78564 13.5001C5.78564 14.5652 6.64911 15.4287 7.71422 15.4287Z" fill="white"/>
<path d="M13.4999 15.4287C14.565 15.4287 15.4285 14.5652 15.4285 13.5001C15.4285 12.4351 14.565 11.5715 13.4999 11.5715C12.4348 11.5715 11.5714 12.4351 11.5714 13.5001C11.5714 14.5652 12.4348 15.4287 13.4999 15.4287Z" fill="white"/>
<path d="M21.2142 13.5001C21.2142 14.5652 20.3507 15.4287 19.2856 15.4287C18.2205 15.4287 17.3571 14.5652 17.3571 13.5001C17.3571 12.4351 18.2205 11.5715 19.2856 11.5715C20.3507 11.5715 21.2142 12.4351 21.2142 13.5001Z" fill="white"/>
</svg>
